<svg xmlns="http://www.w3.org/2000/svg" viewBox="0 0 256 256" fill="currentColor"><g transform="translate(-32 32) scale(0.75)"><path d="M176,208a8,8,0,0,1-8,8H88a8,8,0,0,1-6.4-12.8l71.94-95.92a32,32,0,1,0-51.1-38.53,32.5,32.5,0,0,0-3.78,6.46A8,8,0,1,1,84,68.8a48,48,0,1,1,82.33,48.09L104,200h64A8,8,0,0,1,176,208Z"/></g><g transform="translate(96 32) scale(0.75)"><path d="M128,40a56,56,0,1,0,15.62,109.77L113,204.07A8,8,0,1,0,127,211.92l49.55-88A56,56,0,0,0,128,40Zm0,96a40,40,0,1,1,40-40A40,40,0,0,1,128,136Z"/></g></svg>
